STARTFONT 2.1
FONT HAN-GB2312
SIZE 10 72 72
FONTBOUNDINGBOX 11 10 0 0
STARTPROPERTIES 1
BITCOUNT 8
ENDPROPERTIES
CHARS 22
STARTCHAR  00A7
ENCODING  167
SWIDTH  1000 0
DWIDTH  5 0
BBX  5 9 0 -2
BITMAP
008080A000
3080004030
20E0600000
800040A020
8040001080
0080A04060
000030E010
406000C040
0060808000
ENDCHAR
STARTCHAR  00A8
ENCODING  168
SWIDTH  1000 0
DWIDTH  4 0
BBX  4 2 0 5
BITMAP
C060E010
10202020
ENDCHAR
STARTCHAR  00B1
ENCODING  177
SWIDTH  1000 0
DWIDTH  5 0
BBX  5 5 0 0
BITMAP
0000600000
2080A08020
0000600000
0000400000
2060606010
ENDCHAR
STARTCHAR  00B7
ENCODING  183
SWIDTH  1000 0
DWIDTH  5 0
BBX  4 5 1 1
BITMAP
00401000
C0FFE010
F0FFFF40
80F0C060
00206010
ENDCHAR
STARTCHAR  00E0
ENCODING  224
SWIDTH  1000 0
DWIDTH  11 0
BBX  10 10 1 0
BITMAP
000010E0E03000000000
00000010E0A030000000
00000000208040000000
000000A0FFC020000000
000010F0F0FF60100000
000080E060FFA0300000
0010F0F0F0FFFF401000
0060E0202060FFA03000
F0FFFFF0A0F0FFFFF020
40404040604040404020
ENDCHAR
STARTCHAR  00E1
ENCODING  225
SWIDTH  1000 0
DWIDTH  11 0
BBX  10 10 1 0
BITMAP
00000010E0C040000000
000000A0E04010000000
00001080400000000000
000000A0FFC020000000
000010F0F0FF60100000
000080E060FFA0300000
0010F0F0F0FFFF401000
0060E0202060FFA03000
F0FFFFF0A0F0FFFFF020
40404040604040404020
ENDCHAR
STARTCHAR  00E8
ENCODING  232
SWIDTH  1000 0
DWIDTH  8 0
BBX  9 10 -1 0
BITMAP
000080FF6010000000
000000A0C060000000
000000008040300000
40FFFFFFFFFFFFF020
1040FFE0604080F030
0000FFFFFF40004030
0000FFE03030208000
0000FFE0403060FF30
40F0FFFFF0F0FFFF30
106040404040404040
ENDCHAR
STARTCHAR  00E9
ENCODING  233
SWIDTH  1000 0
DWIDTH  8 0
BBX  9 10 -1 0
BITMAP
00000060F060100000
000010F08040000000
000040802000000000
40FFFFFFFFFFFFF020
1040FFE0604080F030
0000FFFFFF40004030
0000FFE03030208000
0000FFE0403060FF30
40F0FFFFF0F0FFFF30
106040404040404040
ENDCHAR
STARTCHAR  00EA
ENCODING  234
SWIDTH  1000 0
DWIDTH  8 0
BBX  9 10 -1 0
BITMAP
000030FFE040000000
0010E0A0E0C0400000
003080302080603000
40FFFFFFFFFFFFF020
1040FFE0604080F030
0000FFFFFF40004030
0000FFE03030208000
0000FFE0403060FF30
40F0FFFFF0F0FFFF30
106040404040404040
ENDCHAR
STARTCHAR  00EC
ENCODING  236
SWIDTH  1000 0
DWIDTH  7 0
BBX  6 10 1 0
BITMAP
80E040000000
00C0A0400000
001080402000
FFFFFFFFC020
40E0FF404030
00E0FF300000
00E0FF300000
00E0FF300000
F0FFFFF0C030
404040404040
ENDCHAR
STARTCHAR  00ED
ENCODING  237
SWIDTH  1000 0
DWIDTH  7 0
BBX  6 10 1 0
BITMAP
00A0E0600000
30F060300000
406010000000
FFFFFFFFC020
40E0FF404030
00E0FF300000
00E0FF300000
00E0FF300000
F0FFFFF0C030
404040404040
ENDCHAR
STARTCHAR  00F2
ENCODING  242
SWIDTH  1000 0
DWIDTH  10 0
BBX  9 10 1 0
BITMAP
0010E0E02000000000
000010C0A010000000
000000002030000000
0060E0FFE080000000
80FF603060F0801000
F0C0300000C0E01020
F0C0200000C0F00020
A0F0300020F0A00020
0080E0E0E080003000
001030202020200000
ENDCHAR
STARTCHAR  00F3
ENCODING  243
SWIDTH  1000 0
DWIDTH  10 0
BBX  9 10 1 0
BITMAP
000010E0A030000000
0000A0C04000000000
000030300000000000
0060E0FFE080000000
80FF603060F0801000
F0C0300000C0E01020
F0C0200000C0F00020
A0F0300020F0A00020
0080E0E0E080003000
001030202020200000
ENDCHAR
STARTCHAR  00F9
ENCODING  249
SWIDTH  1000 0
DWIDTH  11 0
BBX  10 11 1 0
BITMAP
00004080300000000000
000010E0E04000000000
00000020E0C030000000
00000000003040100000
FFFFFFFF80FFFFFFF030
40C0FF40406060F04030
00A0FF20000020F04000
00A0FF20000020F04000
00A0FF40001060E03000
0010A0F0FFF0E0403000
00002030303030300000
ENDCHAR
STARTCHAR  00FA
ENCODING  250
SWIDTH  1000 0
DWIDTH  11 0
BBX  10 11 1 0
BITMAP
00000000608040000000
00000040FFA030100000
000010E0803010000000
00001030301000000000
FFFFFFFF80FFFFFFF030
40C0FF40406060F04030
00A0FF20000020F04000
00A0FF20000020F04000
00A0FF40001060E03000
0010A0F0FFF0E0403000
00002030303030300000
ENDCHAR
STARTCHAR  00FC
ENCODING  252
SWIDTH  1000 0
DWIDTH  11 0
BBX  10 9 1 0
BITMAP
000010E020E000000000
00000030202020000000
FFFFFFFF80FFFFFFF030
40C0FF40406060F04030
00A0FF20000020F04000
00A0FF20000020F04000
00A0FF40001060E03000
0010A0F0FFF0E0403000
00002030303030300000
ENDCHAR
STARTCHAR  2014
ENCODING  8212
SWIDTH  1000 0
DWIDTH  12 0
BBX  11 3 1 1
BITMAP
1010101010101010101000
A080808080808080806030
3020202020202020202030
ENDCHAR
STARTCHAR  2018
ENCODING  8216
SWIDTH  1000 0
DWIDTH  3 0
BBX  3 5 0 3
BITMAP
001000
40A010
80A030
A0F030
102020
ENDCHAR
STARTCHAR  2019
ENCODING  8217
SWIDTH  1000 0
DWIDTH  3 0
BBX  3 4 0 3
BITMAP
80FF30
40F020
40A030
103000
ENDCHAR
STARTCHAR  201C
ENCODING  8220
SWIDTH  1000 0
DWIDTH  6 0
BBX  6 5 0 3
BITMAP
001000001000
40A01030C010
A0A02080C020
A0E030A0FF30
102030102020
ENDCHAR
STARTCHAR  201D
ENCODING  8221
SWIDTH  1000 0
DWIDTH  6 0
BBX  6 4 0 3
BITMAP
A0FF20E0FF20
60E02080F020
40A020608020
102000102000
ENDCHAR
STARTCHAR  2026
ENCODING  8230
SWIDTH  1000 0
DWIDTH  11 0
BBX  10 3 1 0
BITMAP
E0A020A0E020C0E04010
FFC020C0FF30F0FF4060
30203020203030202040
ENDCHAR
ENDFONT
